<?xml version="1.0" standalone="no"?>
<!DOCTYPE svg PUBLIC "-//W3C//DTD SVG 20010904//EN"
 "http://www.w3.org/TR/2001/REC-SVG-20010904/DTD/svg10.dtd">
<svg version="1.0" xmlns="http://www.w3.org/2000/svg"
 width="1347.000000pt" height="1347.000000pt" viewBox="0 0 1347.000000 1347.000000"
 preserveAspectRatio="xMidYMid meet">
<metadata>
Created by potrace 1.14, written by Peter Selinger 2001-2017
</metadata>
<g transform="translate(0.000000,1347.000000) scale(0.100000,-0.100000)"
fill="#000000" stroke="none">
<path d="M6028 9266 c-1 -2 -64 -6 -138 -10 -74 -3 -144 -8 -155 -10 -11 -2
-40 -7 -65 -11 -65 -11 -172 -32 -200 -40 -3 -1 -18 -5 -35 -9 -134 -34 -411
-161 -525 -241 -184 -129 -332 -269 -448 -425 -109 -145 -134 -186 -209 -337
-36 -73 -66 -133 -68 -133 -1 0 -2 21 -2 48 0 55 -12 161 -28 247 -22 120 -63
242 -116 345 -39 76 -70 131 -79 140 -3 3 -18 22 -33 42 -74 99 -205 207 -327
268 -173 86 -303 114 -535 114 -203 1 -261 -7 -397 -49 -186 -59 -333 -149
-485 -301 -57 -56 -103 -99 -103 -96 0 4 11 73 25 153 14 81 26 162 27 180 l3
34 -408 0 c-400 0 -408 0 -412 -20 -3 -11 -18 -96 -34 -190 -17 -93 -39 -224
-51 -290 -12 -66 -32 -181 -45 -255 -45 -256 -54 -305 -60 -340 -3 -19 -12
-71 -20 -115 -8 -44 -17 -93 -20 -110 -36 -208 -76 -434 -79 -450 -2 -11 -7
-40 -11 -65 -4 -25 -9 -54 -11 -65 -2 -11 -7 -33 -9 -50 -3 -16 -14 -77 -25
-135 -17 -97 -25 -146 -36 -210 -3 -14 -9 -47 -14 -75 -5 -27 -12 -67 -16 -89
-3 -21 -8 -48 -10 -60 -2 -11 -7 -37 -10 -56 -3 -19 -14 -80 -24 -135 -10 -55
-21 -118 -24 -140 -4 -23 -9 -52 -11 -65 -6 -30 -13 -68 -20 -112 -3 -18 -8
-40 -10 -48 -2 -8 -7 -35 -10 -60 -3 -25 -8 -52 -10 -60 -2 -8 -7 -35 -10 -60
-4 -24 -8 -47 -10 -50 -1 -3 -6 -27 -9 -54 -4 -27 -9 -52 -10 -55 -2 -3 -7
-26 -10 -51 -3 -25 -8 -56 -11 -70 -3 -14 -8 -45 -11 -70 -3 -25 -8 -48 -10
-51 -1 -3 -10 -48 -18 -100 -9 -52 -18 -105 -21 -119 -9 -45 -36 -194 -40
-225 -4 -25 -16 -97 -20 -115 0 -3 -5 -27 -10 -55 -5 -27 -9 -52 -10 -55 -1
-3 -5 -27 -10 -55 -4 -27 -9 -59 -11 -70 -2 -11 -7 -36 -10 -55 -4 -19 -8 -44
-10 -55 -2 -11 -9 -48 -14 -82 -6 -34 -13 -69 -16 -77 -3 -9 -2 -17 2 -17 30
-4 827 -3 832 1 4 3 8 10 9 15 0 6 11 66 23 135 12 69 23 132 25 140 2 16 15
92 21 125 10 55 44 244 49 275 3 19 10 58 15 85 9 49 13 71 25 149 4 21 9 48
11 60 2 11 7 37 10 56 4 19 7 40 8 45 2 6 7 33 11 60 5 28 10 52 10 55 1 3 5
28 10 55 4 28 9 59 11 70 19 99 34 186 39 215 3 19 10 58 15 85 5 28 12 66 15
85 11 68 37 205 40 208 1 1 17 -21 36 -50 122 -194 285 -324 488 -388 114 -36
185 -44 366 -43 211 1 372 36 553 119 41 19 76 34 79 34 11 0 183 116 243 165
222 179 404 430 535 735 27 63 52 119 55 123 4 4 7 -12 8 -35 1 -24 4 -54 7
-68 3 -13 7 -42 10 -65 3 -22 8 -48 11 -57 3 -9 7 -25 9 -36 8 -46 67 -207 96
-264 122 -241 321 -424 583 -535 87 -38 270 -88 351 -97 28 -3 61 -9 75 -12
41 -9 369 -12 445 -3 457 49 833 221 1141 519 39 38 85 87 103 109 18 22 42
50 53 63 47 53 149 211 202 309 58 110 136 291 136 317 0 9 3 13 6 9 3 -3 1
-29 -5 -59 -6 -29 -13 -69 -16 -88 -3 -19 -10 -57 -15 -85 -5 -27 -12 -63 -15
-80 -3 -16 -12 -70 -20 -120 -21 -120 -25 -141 -35 -200 -24 -133 -61 -342
-64 -360 -4 -20 -39 -220 -75 -425 -11 -63 -23 -131 -26 -150 -3 -19 -8 -42
-10 -50 -2 -8 -7 -35 -10 -60 -3 -25 -8 -52 -10 -60 -2 -8 -7 -35 -10 -60 -4
-24 -8 -47 -10 -50 -1 -3 -6 -27 -9 -54 -4 -27 -9 -52 -11 -56 -2 -3 -6 -26
-9 -50 -3 -25 -8 -56 -11 -70 -13 -65 -15 -77 -20 -110 -3 -19 -7 -46 -10 -60
-3 -14 -7 -38 -10 -55 -3 -16 -7 -40 -9 -52 -3 -11 -8 -43 -12 -70 -5 -26 -9
-50 -9 -53 -1 -3 -5 -27 -10 -55 -5 -27 -10 -52 -10 -55 -1 -3 -5 -27 -10 -55
-11 -73 -14 -85 -20 -106 -4 -10 -3 -20 2 -20 4 -1 194 -2 421 -3 360 -1 413
1 416 14 2 8 7 33 11 55 4 22 9 49 11 60 1 11 19 112 39 225 20 113 38 221 41
240 3 19 7 42 10 51 2 9 7 34 10 55 2 22 6 46 9 54 2 8 7 35 10 59 3 23 7 46
9 50 2 3 7 29 10 56 4 28 9 57 11 65 2 8 7 33 10 55 4 22 9 49 10 60 2 11 9
47 14 80 6 33 13 71 16 85 8 37 36 201 40 230 2 14 4 25 5 25 1 0 3 12 5 27 2
14 11 66 20 115 9 48 18 99 20 113 13 87 28 150 35 143 4 -4 30 -42 57 -83
147 -220 366 -353 637 -388 73 -10 309 -8 364 2 17 3 47 8 65 11 275 47 588
222 790 443 23 25 47 50 52 56 27 28 124 157 159 210 159 245 300 621 351 936
3 19 7 46 10 60 7 39 14 97 22 195 40 513 -74 914 -335 1168 -118 117 -218
178 -376 233 -56 19 -103 35 -106 35 -7 -1 -69 10 -95 17 -37 9 -373 11 -407
2 -18 -5 -46 -11 -63 -13 -61 -9 -190 -50 -263 -83 -121 -55 -239 -140 -349
-250 -105 -105 -111 -107 -93 -29 5 22 12 63 15 90 4 28 8 59 10 70 2 11 7 43
11 70 3 28 7 54 8 59 0 6 -155 10 -407 11 -355 0 -408 -2 -412 -15 -2 -8 -11
-58 -19 -110 -9 -52 -18 -106 -21 -120 -5 -25 -43 -237 -49 -275 -5 -31 -38
-218 -42 -240 -2 -11 -8 -46 -14 -77 -6 -32 -12 -70 -15 -85 -3 -16 -8 -44
-10 -63 -3 -19 -8 -46 -11 -60 -7 -29 -23 -120 -31 -170 -9 -58 -12 -47 -13
41 0 101 -4 141 -26 276 -17 108 -91 312 -139 385 -14 21 -25 40 -25 44 0 14
-114 155 -167 205 -164 155 -386 267 -623 313 -109 21 -138 25 -250 32 -52 3
-100 7 -107 9 -6 2 -13 2 -15 1z m-3178 -711 c202 -39 361 -195 423 -415 41
-145 50 -350 22 -510 -21 -115 -30 -157 -51 -238 -107 -405 -293 -646 -576
-748 -24 -9 -54 -18 -68 -20 -14 -2 -47 -9 -75 -14 -72 -14 -235 -10 -305 6
-225 52 -353 212 -395 494 -6 42 -8 298 -2 308 3 4 8 40 11 80 4 40 9 78 11
85 2 7 7 30 10 52 16 114 62 258 119 375 101 205 251 370 427 468 57 32 180
73 234 79 28 3 52 7 54 9 4 4 127 -4 161 -11z m6330 -9 c184 -55 309 -183 374
-383 28 -87 33 -108 42 -205 17 -179 -12 -405 -81 -634 -81 -267 -214 -476
-374 -587 -180 -124 -435 -167 -666 -113 -63 15 -163 73 -210 124 -65 69 -124
196 -141 302 -3 25 -8 56 -10 70 -5 31 -4 275 2 315 2 17 6 48 8 70 4 38 10
78 21 135 3 14 7 41 10 60 17 104 108 326 182 442 138 217 371 384 578 414 22
4 41 7 43 9 9 8 179 -6 222 -19z m-3053 -38 c173 -52 285 -155 345 -318 99
-265 22 -820 -158 -1150 -164 -299 -426 -451 -779 -453 -296 -1 -500 120 -584
347 -51 138 -61 371 -25 581 22 128 34 184 43 208 6 15 9 27 6 27 -2 0 14 52
35 114 80 230 177 379 335 511 53 44 197 112 285 133 118 29 118 29 275 27
115 -2 154 -7 222 -27z"/>
<path d="M10995 9258 c-65 -23 -146 -93 -176 -151 -18 -34 -86 -326 -113 -482
-3 -14 -7 -33 -10 -43 -3 -9 -7 -28 -10 -42 -2 -14 -12 -61 -21 -105 -9 -44
-17 -98 -18 -121 -1 -53 29 -110 76 -148 l39 -31 921 -3 c1059 -3 979 -9 1079
90 32 31 63 69 69 85 9 24 41 159 56 233 2 14 17 86 33 160 16 74 39 182 51
240 25 119 27 186 5 227 -21 41 -68 82 -107 93 -48 14 -1834 12 -1874 -2z
m860 -198 c-13 -87 -18 -100 -34 -101 -9 0 -62 -1 -118 -1 -57 1 -103 -2 -103
-6 0 -8 -27 -161 -35 -202 -6 -31 -9 -43 -45 -252 -17 -92 -30 -172 -30 -178
0 -6 -34 -10 -85 -10 l-84 0 5 33 c3 17 12 66 20 107 7 41 16 92 20 114 3 21
7 46 9 55 1 9 6 36 10 61 4 25 9 54 11 65 3 11 7 36 10 55 3 19 7 37 9 40 2 3
6 31 10 62 l7 57 -104 -1 c-136 0 -129 -1 -124 25 3 12 8 42 11 67 l7 45 319
0 319 0 -5 -35z m199 5 c3 -16 8 -52 11 -80 4 -27 8 -61 11 -75 2 -14 6 -50
10 -80 3 -30 8 -64 10 -75 2 -11 7 -45 10 -76 3 -31 9 -71 13 -90 l8 -34 40
85 c85 177 215 445 219 449 5 6 157 9 166 4 4 -2 -8 -32 -26 -66 -18 -34 -91
-174 -161 -312 -71 -137 -146 -285 -168 -327 l-40 -78 -78 0 c-86 0 -82 -4
-93 90 -3 19 -7 49 -10 65 -24 145 -46 276 -50 305 -3 19 -12 78 -21 130 -9
52 -19 118 -21 145 l-5 50 85 0 85 1 5 -31z"/>
</g>
</svg>
